<svg width="32" height="48" viewBox="0 0 32 48" fill="none" xmlns="http://www.w3.org/2000/svg">
<rect width="32" height="48" rx="4" fill="#171A19"/>
<path d="M22.0894 35.6122L21.979 39.1447L25.1486 40.7083L21.6161 40.598L20.0525 43.7676L20.1629 40.235L16.9933 38.6714L20.5258 38.7818L22.0894 35.6122Z" fill="url(#paint0_linear_184_19062)" fill-opacity="0.8"/>
<path d="M14.242 31.4838L13.9045 33.6104L15.7003 34.7985L13.5737 34.461L12.3857 36.2568L12.7232 34.1302L10.9273 32.9422L13.054 33.2797L14.242 31.4838Z" fill="url(#paint1_linear_184_19062)" fill-opacity="0.8"/>
<path d="M23.9666 22.9267L23.2386 27.2153L26.8405 29.6541L22.552 28.9261L20.1131 32.528L20.8411 28.2395L17.2393 25.8006L21.5278 26.5286L23.9666 22.9267Z" fill="url(#paint2_linear_184_19062)" fill-opacity="0.8"/>
<defs>
<linearGradient id="paint0_linear_184_19062" x1="23.7224" y1="44.6842" x2="5.66255" y2="23.0084" gradientUnits="userSpaceOnUse">
<stop stop-color="white"/>
<stop offset="1" stop-color="white" stop-opacity="0"/>
</linearGradient>
<linearGradient id="paint1_linear_184_19062" x1="14.5335" y1="37.0921" x2="5.27966" y2="22.6067" gradientUnits="userSpaceOnUse">
<stop stop-color="white"/>
<stop offset="1" stop-color="white" stop-opacity="0"/>
</linearGradient>
<linearGradient id="paint2_linear_184_19062" x1="24.4337" y1="34.2621" x2="6.05549" y2="4.80003" gradientUnits="userSpaceOnUse">
<stop stop-color="white"/>
<stop offset="1" stop-color="white" stop-opacity="0"/>
</linearGradient>
</defs>
</svg>
