<svg width="24" height="24" viewBox="0 0 24 24" fill="none" xmlns="http://www.w3.org/2000/svg">
<path d="M18.4345 11.8504L13.7051 11.512L12.6861 13.3203C12.669 13.3506 12.1902 13.162 12.1459 13.1444C11.9237 13.0576 11.7097 12.9512 11.5062 12.8267C11.0973 12.5646 10.7305 12.2421 10.4183 11.8701C10.2685 11.6928 10.1364 11.5012 10.0241 11.298C9.99857 11.2529 9.72465 10.7624 9.75625 10.7389L11.4232 9.50005L10.4949 4.84947L4.72794 4L4.5215 4.64258C4.33907 5.21096 4.20379 5.7934 4.11702 6.384C3.83294 8.31547 4.07721 10.2878 4.82389 12.0916C5.57058 13.8955 6.79181 15.4634 8.35792 16.629C9.92403 17.7946 11.7766 18.5143 13.7188 18.7117C15.661 18.9092 17.6205 18.577 19.3891 17.7504L19.9999 17.465L18.4345 11.8504ZM17.2866 16.8378C15.8075 17.2477 14.2495 17.2821 12.7537 16.938C11.2579 16.594 9.87159 15.8822 8.72022 14.8673C7.56885 13.8523 6.68882 12.5662 6.15981 11.1254C5.63081 9.68463 5.46954 8.13462 5.6906 6.61578C5.73204 6.33373 5.78696 6.05175 5.85599 5.77568L9.15506 6.26163L9.66495 8.82398L7.93207 10.1119L8.04553 10.6158C8.33869 11.749 8.96125 12.7699 9.83449 13.5494C10.7077 14.3289 11.7925 14.832 12.9516 14.9951C12.975 14.9983 12.9985 15.001 13.022 15.0039L13.5379 15.0534L14.5981 13.1716L17.2019 13.3579L18.0993 16.5708C17.8326 16.6699 17.5596 16.7605 17.2866 16.8378Z" fill="#171A19"/>
</svg>
