<svg width="24" height="36" viewBox="0 0 24 36" fill="none" xmlns="http://www.w3.org/2000/svg">
    <defs>
        <linearGradient id="paint0_linear_87_25382" x1="16.625" y1="28.25" x2="9.85175" y2="23.2971"
                        gradientUnits="userSpaceOnUse">
            <stop stop-color="white"/>
            <stop offset="1" stop-color="white" stop-opacity="0"/>
        </linearGradient>
        <linearGradient id="paint1_linear_87_25382" x1="19.5" y1="32.5" x2="-8.5" y2="13"
                        gradientUnits="userSpaceOnUse">
            <stop stop-color="white"/>
            <stop offset="1" stop-color="white" stop-opacity="0"/>
        </linearGradient>
        <clipPath id="clip0_87_25382">
            <rect width="12" height="12" fill="white" transform="translate(9 21)"/>
        </clipPath>
    </defs>
    <rect x="24" width="36" height="24" rx="2" transform="rotate(90 24 0)" fill="#51F2AE"/>
    <g clip-path="url(#clip0_87_25382)">
        <path d="M15.5 28.25C16.1904 28.25 16.75 27.6904 16.75 27C16.75 26.3096 16.1904 25.75 15.5 25.75C14.8096 25.75 14.25 26.3096 14.25 27C14.25 27.6904 14.8096 28.25 15.5 28.25Z"
              fill="url(#paint0_linear_87_25382)"/>
        <path d="M19 22H11C10.4485 22 10 22.4485 10 23V31C10 31.4665 10.3204 31.8588 10.7525 31.9691C10.8863 32.0032 11 32.1119 11 32.25C11 32.3881 11.1119 32.5 11.25 32.5H11.75C11.8881 32.5 12 32.3881 12 32.25C12 32.1119 12.1119 32 12.25 32H17.75C17.8881 32 18 32.1119 18 32.25C18 32.3881 18.1119 32.5 18.25 32.5H18.75C18.8881 32.5 19 32.3881 19 32.25C19 32.1119 19.1136 32.0031 19.2474 31.9689C19.4199 31.9249 19.5791 31.8351 19.7071 31.7071C19.8946 31.5196 20 31.2652 20 31V23C20 22.4485 19.552 22 19 22ZM18.5 29.5C18.5 30.0523 18.0523 30.5 17.5 30.5H12.75C12.3358 30.5 12 30.1642 12 29.75V29.5C12 29.2239 11.7761 29 11.5 29C11.2239 29 11 28.7761 11 28.5C11 28.2239 11.2239 28 11.5 28C11.7761 28 12 27.7761 12 27.5V26.5C12 26.2239 11.7761 26 11.5 26C11.2239 26 11 25.7761 11 25.5C11 25.2239 11.2239 25 11.5 25C11.7761 25 12 24.7761 12 24.5V24.25C12 23.8358 12.3358 23.5 12.75 23.5H17.5C18.0523 23.5 18.5 23.9477 18.5 24.5V29.5Z"
              fill="url(#paint1_linear_87_25382)"/>
    </g>
</svg>
