<svg width="32" height="32" viewBox="0 0 32 32" fill="none" xmlns="http://www.w3.org/2000/svg">
<mask id="path-1-inside-1_140_21963" fill="white">
<path fill-rule="evenodd" clip-rule="evenodd" d="M20.5581 5H12.4404V12.4404L5 12.4404V20.5581H12.4404V28H20.5581V20.5581H28V12.4404L20.5581 12.4404V5Z"/>
</mask>
<path d="M12.4404 5V3H10.4404V5H12.4404ZM20.5581 5H22.5581V3H20.5581V5ZM12.4404 12.4404V14.4404L14.4404 14.4404V12.4404H12.4404ZM5 12.4404L5 10.4404H3V12.4404H5ZM5 20.5581H3V22.5581H5V20.5581ZM12.4404 20.5581H14.4404V18.5581H12.4404V20.5581ZM12.4404 28H10.4404V30H12.4404V28ZM20.5581 28V30H22.5581V28H20.5581ZM20.5581 20.5581V18.5581H18.5581V20.5581H20.5581ZM28 20.5581V22.5581H30V20.5581H28ZM28 12.4404H30V10.4404H28V12.4404ZM20.5581 12.4404H18.5581V14.4404H20.5581V12.4404ZM12.4404 7H20.5581V3H12.4404V7ZM14.4404 12.4404V5H10.4404V12.4404H14.4404ZM5 14.4404H12.4404V10.4404L5 10.4404L5 14.4404ZM7 20.5581V12.4404H3V20.5581H7ZM12.4404 18.5581H5V22.5581H12.4404V18.5581ZM14.4404 28V20.5581H10.4404V28H14.4404ZM20.5581 26H12.4404V30H20.5581V26ZM18.5581 20.5581V28H22.5581V20.5581H18.5581ZM28 18.5581H20.5581V22.5581H28V18.5581ZM26 12.4404V20.5581H30V12.4404H26ZM20.5581 14.4404L28 14.4404V10.4404L20.5581 10.4404V14.4404ZM18.5581 5V12.4404H22.5581V5H18.5581Z" fill="#171A19" mask="url(#path-1-inside-1_140_21963)"/>
</svg>
