<svg width="40" height="40" viewBox="0 0 40 40" fill="none" xmlns="http://www.w3.org/2000/svg">
<circle cx="20" cy="20" r="20" fill="#F8F8F8"/>
<path d="M14.619 13.7143V16.4286M14.619 19.1429V19.1429C16.6178 19.1429 18.2381 17.5226 18.2381 15.5238V14.619C18.2381 12.6203 16.6178 11 14.619 11V11C12.6203 11 11 12.6203 11 14.6191V15.5238C11 17.5226 12.6203 19.1429 14.619 19.1429Z" stroke="#171A19" stroke-width="2"/>
<path d="M26.3805 24.571V27.2853M26.3805 29.9995V29.9995C28.3793 29.9995 29.9996 28.3792 29.9996 26.3805V25.4757C29.9996 23.477 28.3793 21.8567 26.3805 21.8567V21.8567C24.3818 21.8567 22.7615 23.477 22.7615 25.4757V26.3805C22.7615 28.3792 24.3818 29.9995 26.3805 29.9995Z" stroke="#171A19" stroke-width="2"/>
<path d="M24.571 11H29.9995M29.9995 11V16.4286M29.9995 11L11.9043 29.0952" stroke="#171A19" stroke-width="2"/>
</svg>
