<svg width="40" height="40" viewBox="0 0 40 40" fill="none" xmlns="http://www.w3.org/2000/svg">
<circle cx="20" cy="20" r="20" fill="#F8F8F8"/>
<path d="M13 12V14.1429H14.0714C20.5921 14.1429 25.8571 19.4057 25.8571 25.9286V27H28V25.9286C28 18.2486 21.7514 12 14.0714 12H13ZM13 16.2857V18.4286H14.0714C18.2264 18.4286 21.5714 21.7736 21.5714 25.9286V27H23.7143V25.9286C23.7143 20.6143 19.3857 16.2857 14.0714 16.2857H13ZM13 20.5714V22.7143H14.0714C15.8586 22.7143 17.2857 24.1414 17.2857 25.9286V27H19.4286V25.9286C19.4286 22.9821 17.0179 20.5714 14.0714 20.5714H13Z" fill="#171A19"/>
</svg>
