<svg width="34" height="24" viewBox="0 0 34 24" fill="none" xmlns="http://www.w3.org/2000/svg">
<path d="M6.37307 8.00119C6.60233 7.99982 7.28369 7.93846 7.5723 8.91251C7.76671 9.56865 8.07639 10.6434 8.50135 12.1369H8.67442C9.13015 10.5624 9.44321 9.4876 9.61361 8.91251C9.90523 7.92831 10.6343 8.00121 10.9259 8.00121L13.1758 8.00122V15H10.8826V10.8755H10.7289L9.45054 15H7.72523L6.44692 10.8724H6.29315V15H4V8.00122L6.37307 8.00119ZM16.4687 8.00122V12.1288H16.6516L18.2066 8.73471C18.5084 8.05929 19.1517 8.00122 19.1517 8.00122H21.3708V15H19.0298V10.8724H18.8468L17.3224 14.2665C17.0205 14.9389 16.3467 15 16.3467 15H14.1276V8.00122H16.4687ZM29.4625 11.3271C29.1359 12.2525 28.1104 12.9152 26.9751 12.9152H24.52V15H22.2939V11.3271H29.4625Z" fill="#0F754E"/>
<path d="M27.0811 8.00098H22.1758C22.2925 9.55914 23.6344 10.893 25.0235 10.893H29.6159C29.8809 9.59802 28.9686 8.00098 27.0811 8.00098Z" fill="url(#paint0_linear_184_19184)"/>
<defs>
<linearGradient id="paint0_linear_184_19184" x1="21.7143" y1="7.99977" x2="28.5308" y2="10.4785" gradientUnits="userSpaceOnUse">
<stop stop-color="#17A9FF"/>
<stop offset="1" stop-color="#1E5FD8"/>
</linearGradient>
</defs>
</svg>
