<svg width="40" height="40" viewBox="0 0 40 40" fill="none" xmlns="http://www.w3.org/2000/svg">
<path fill-rule="evenodd" clip-rule="evenodd" d="M12.4349 24L13.6295 22V16.3714C13.6295 12.8526 16.4821 10 20.0009 10C23.5197 10 26.3723 12.8526 26.3723 16.3714V22L27.5669 24L28.7616 26H26.4319H13.5699H11.2402L12.4349 24ZM24.6553 23.0256L25.2373 24H14.7645L15.3465 23.0256L15.6295 22.5518V22V16.3714C15.6295 13.9571 17.5866 12 20.0009 12C22.4151 12 24.3723 13.9571 24.3723 16.3714V22V22.5518L24.6553 23.0256ZM18 28H17V30H18H22H23V28H22H18Z" fill="#171A19"/>
</svg>
