<svg width="40" height="40" viewBox="0 0 40 40" fill="none" xmlns="http://www.w3.org/2000/svg">
<path fill-rule="evenodd" clip-rule="evenodd" d="M12.4349 24L13.6295 22V16.3714C13.6295 12.8526 16.4821 10 20.0009 10C23.5197 10 26.3723 12.8526 26.3723 16.3714V22L27.5669 24L28.7616 26H26.4319H13.5699H11.2402L12.4349 24ZM24.6553 23.0256L25.2373 24H14.7645L15.3465 23.0256L15.6295 22.5518V22V16.3714C15.6295 13.9571 17.5866 12 20.0009 12C22.4151 12 24.3723 13.9571 24.3723 16.3714V22V22.5518L24.6553 23.0256ZM18 28H17V30H18H22H23V28H22H18Z" fill="#171A19"/>
<circle cx="30" cy="10" r="9" fill="#FA193B" stroke="#F8F8F8" stroke-width="2"/>
<path d="M27.5943 13H32.3743C32.5143 13 32.6143 12.9 32.6143 12.76V12.05C32.6143 11.91 32.5143 11.81 32.3743 11.81H29.5243L30.9443 10.37C31.8943 9.61 32.4643 8.94 32.4643 8C32.4643 6.8 31.6443 5.88 29.9943 5.88C28.3943 5.88 27.4943 6.98 27.4643 8.13C27.4643 8.24 27.5543 8.33 27.6743 8.33H28.5643C28.6843 8.33 28.8143 8.27 28.8543 8.1C28.9443 7.53 29.2943 7.04 30.0043 7.04C30.7043 7.04 31.0243 7.45 31.0243 8.05C31.0243 8.66 30.4843 9.19 29.1843 10.21L27.6043 11.78C27.3943 11.95 27.3543 12.14 27.3543 12.25V12.76C27.3543 12.9 27.4543 13 27.5943 13Z" fill="white"/>
</svg>
