<svg width="40" height="40" viewBox="0 0 40 40" fill="none" xmlns="http://www.w3.org/2000/svg">
<path d="M7 23.5C7 18.8056 11.0294 15 16 15L23.0001 15C23.6874 15 24.3568 15.0728 25.0001 15.2106C25.0001 15.2106 25.5001 12 30.0001 12V18.157C30.4799 18.717 30.8859 19.3357 31.2041 20H35.0001V24C35.0001 27 31.2041 27 31.2041 27C30.3477 28.7877 28.8556 30.2456 27.0001 31.1165V35C22.0001 35 22.0001 32 22.0001 32H17.0001C17.0001 32 17.0001 35 12.0001 35C12.0002 33 12 31.1165 12 31.1165M7 23.5H4M7 23.5C7 26.8374 9.03656 29.7256 12 31.1165M12 31.1165V34" stroke="#1A1C20" stroke-width="2"/>
<path d="M16 19H23" stroke="#1A1C20" stroke-width="2"/>
<circle cx="27.5" cy="22.5" r="1.5" fill="#1A1C20"/>
<circle cx="19.5" cy="7.5" r="2.5" stroke="#1A1C20" stroke-width="2"/>
</svg>
