<svg width="24" height="24" viewBox="0 0 24 24" fill="none" xmlns="http://www.w3.org/2000/svg">
    <path d="M18.5 12.8636L19.3179 13.439L19.7227 12.8636L19.3179 12.2882L18.5 12.8636ZM18.5 12.8636C19.3179 13.439 19.3177 13.4393 19.3175 13.4396L19.3171 13.4402L19.316 13.4417L19.313 13.4459L19.3037 13.4589C19.296 13.4697 19.2854 13.4844 19.2719 13.5028C19.2449 13.5396 19.2064 13.5914 19.1569 13.6561C19.058 13.7852 18.9149 13.9662 18.7322 14.1816C18.3678 14.6112 17.8395 15.1854 17.1832 15.7624C15.9029 16.888 13.9824 18.1591 11.75 18.1591C9.51756 18.1591 7.59709 16.888 6.31677 15.7624C5.66047 15.1854 5.13217 14.6112 4.76783 14.1816C4.58506 13.9662 4.44198 13.7852 4.3431 13.6561C4.29362 13.5914 4.25511 13.5396 4.22812 13.5028C4.21462 13.4844 4.20399 13.4697 4.19631 13.4589L4.18699 13.4459L4.184 13.4417L4.18293 13.4402L4.1825 13.4396C4.18231 13.4393 4.18214 13.439 5 12.8636M18.5 12.8636C19.3179 12.2882 19.3177 12.288 19.3175 12.2877L19.3171 12.2871L19.316 12.2856L19.313 12.2814L19.3037 12.2683C19.296 12.2576 19.2854 12.2429 19.2719 12.2245C19.2449 12.1876 19.2064 12.1358 19.1569 12.0712C19.058 11.942 18.9149 11.7611 18.7322 11.5456C18.3678 11.1161 17.8395 10.5418 17.1832 9.96487C15.9029 8.8393 13.9824 7.56818 11.75 7.56818C9.51756 7.56818 7.59709 8.8393 6.31677 9.96487C5.66047 10.5418 5.13217 11.1161 4.76783 11.5456C4.58506 11.7611 4.44198 11.942 4.3431 12.0712C4.29362 12.1358 4.25511 12.1876 4.22812 12.2245C4.21462 12.2429 4.20399 12.2576 4.19631 12.2683L4.18699 12.2814L4.184 12.2856L4.18293 12.2871L4.1825 12.2877C4.18231 12.288 4.18214 12.2882 5 12.8636M5 12.8636L4.18214 13.439L3.7773 12.8636L4.18214 12.2882L5 12.8636Z"
          stroke="#171A19" stroke-width="2"/>
    <circle cx="11.7491" cy="12.8634" r="1.84091" fill="#171A19"/>
    <path d="M6.63672 6.31836L17.6822 18.5911" stroke="#171A19" stroke-width="2"/>
    <path d="M7.36328 5L19.636 18.5" stroke="white"/>
</svg>
