<svg width="32" height="32" viewBox="0 0 32 32" fill="none" xmlns="http://www.w3.org/2000/svg">
<path d="M14.2912 27.9091C14.3667 27.9679 14.4597 27.9999 14.5554 28L17.4478 27.9976C17.5437 27.9976 17.6369 27.9656 17.7127 27.9068C17.7885 27.848 17.8425 27.7656 17.8664 27.6727L18.6042 24.709C19.1869 24.5265 19.7559 24.2872 20.3001 23.9903L22.9388 25.5741C23.0214 25.6221 23.1175 25.6417 23.2123 25.6298C23.3072 25.618 23.3955 25.5754 23.4638 25.5085L25.5086 23.4604C25.5769 23.3927 25.6205 23.3039 25.6324 23.2085C25.6443 23.113 25.6238 23.0163 25.5742 22.9338L23.9904 20.2967C24.2793 19.7588 24.5154 19.1914 24.6907 18.6071L27.6735 17.8596C27.7667 17.8367 27.8496 17.7831 27.9088 17.7075C27.968 17.6319 28.0001 17.5386 28 17.4426V14.5526C28 14.3557 27.8655 14.1828 27.6735 14.1356L24.6907 13.3881C24.5154 12.8086 24.2793 12.2412 23.9888 11.7001L25.571 9.06139C25.6206 8.97894 25.6411 8.88222 25.6292 8.78674C25.6173 8.69126 25.5737 8.60253 25.5054 8.53476L23.4606 6.48988C23.392 6.42351 23.3037 6.38121 23.209 6.36938C23.1144 6.35754 23.0184 6.3768 22.9356 6.42425L20.2969 8.00814C19.7566 7.71517 19.1892 7.47527 18.6026 7.29183L17.8616 4.32654C17.8151 4.13446 17.6415 4 17.4446 4H14.5514C14.4555 4.00033 14.3624 4.03261 14.2869 4.09175C14.2114 4.15088 14.1578 4.2335 14.1345 4.32654L13.3902 7.30623C12.804 7.48392 12.2369 7.71959 11.6975 8.00974L9.06202 6.42905C8.97995 6.37856 8.88318 6.3574 8.78753 6.36903C8.69187 6.38066 8.60299 6.42439 8.53541 6.49308L6.4906 8.53797C6.42291 8.60614 6.37987 8.69493 6.36828 8.7903C6.35668 8.88567 6.37719 8.98218 6.42657 9.06459L8.0088 11.7001C7.71188 12.2476 7.47019 12.8158 7.28851 13.3993L4.32653 14.1388C4.13606 14.1852 4 14.3573 4 14.5558V17.449C4.0005 17.5448 4.03287 17.6377 4.09199 17.713C4.15111 17.7884 4.23363 17.8419 4.32653 17.8652L7.30613 18.6111C7.48325 19.1983 7.71948 19.766 8.0112 20.3055L6.42897 22.9378C6.37958 23.0199 6.35906 23.1162 6.37066 23.2113C6.38226 23.3065 6.42532 23.395 6.493 23.4628L8.54102 25.5109C8.60908 25.5782 8.69757 25.621 8.79258 25.6326C8.8876 25.6442 8.98378 25.6239 9.06603 25.5749L11.7015 23.9927C12.2418 24.2874 12.8098 24.5282 13.3974 24.7114L14.1385 27.6751C14.1619 27.7679 14.2157 27.8502 14.2912 27.9091Z" stroke="#171A19" stroke-width="2"/>
<path d="M16.0013 14V14V14ZM16.0013 14C16.5315 14.0012 17.0395 14.2124 17.4142 14.5873C17.7888 14.9622 17.9995 15.4702 18 16C17.9995 16.5298 17.7888 17.0378 17.4142 17.4127C17.0395 17.7876 16.5315 17.9988 16.0013 18C15.4707 17.9993 14.9621 17.7884 14.5869 17.4135C14.2118 17.0385 14.0007 16.5302 14 16C14.0007 15.4698 14.2118 14.9615 14.5869 14.5865C14.9621 14.2116 15.4707 14.0007 16.0013 14ZM16.0036 13L16.0036 13L16 13C15.2049 13.001 14.4425 13.3171 13.8801 13.8792C13.3176 14.4413 13.001 15.2035 13 15.9987L13 16.0013C13.001 16.7965 13.3176 17.5587 13.8801 18.1208C14.4425 18.6829 15.2049 18.999 16 19L16.0036 19C16.7982 18.9982 17.5598 18.6817 18.1215 18.1196C18.6833 17.5575 18.9992 16.7957 19 16.001L19 15.999C18.9992 15.2043 18.6833 14.4425 18.1215 13.8804C17.5598 13.3183 16.7982 13.0018 16.0036 13Z" stroke="#171A19" stroke-width="2"/>
</svg>
