<svg width="32" height="48" viewBox="0 0 32 48" fill="none" xmlns="http://www.w3.org/2000/svg">
<rect width="32" height="48" rx="4" fill="#868C92"/>
<path d="M22.0894 35.6122L22.3012 38.6585L25.2638 39.3984L22.432 40.5412L22.6438 43.5874L20.6819 41.2474L17.8502 42.3902L19.4694 39.8012L17.5076 37.4612L20.4702 38.2011L22.0894 35.6122Z" fill="url(#paint0_linear_184_19063)"/>
<path d="M14.242 31.4838L14.1364 33.3412L15.8703 34.0156L14.0712 34.4892L13.9657 36.3466L12.9593 34.7819L11.1602 35.2555L12.3373 33.8148L11.3309 32.2501L13.0648 32.9245L14.242 31.4838Z" fill="url(#paint1_linear_184_19063)"/>
<path d="M23.9666 22.9267L23.7131 26.6765L27.201 28.0763L23.5564 28.9939L23.3029 32.7437L21.3039 29.561L17.6594 30.4786L20.0685 27.5941L18.0696 24.4115L21.5575 25.8113L23.9666 22.9267Z" fill="url(#paint2_linear_184_19063)"/>
<defs>
<linearGradient id="paint0_linear_184_19063" x1="23.7224" y1="44.6842" x2="5.66255" y2="23.0084" gradientUnits="userSpaceOnUse">
<stop stop-color="white"/>
<stop offset="1" stop-color="white" stop-opacity="0"/>
</linearGradient>
<linearGradient id="paint1_linear_184_19063" x1="14.5335" y1="37.0921" x2="5.27966" y2="22.6067" gradientUnits="userSpaceOnUse">
<stop stop-color="white"/>
<stop offset="1" stop-color="white" stop-opacity="0"/>
</linearGradient>
<linearGradient id="paint2_linear_184_19063" x1="24.4337" y1="34.2621" x2="6.05549" y2="4.80003" gradientUnits="userSpaceOnUse">
<stop stop-color="white"/>
<stop offset="1" stop-color="white" stop-opacity="0"/>
</linearGradient>
</defs>
</svg>
